<svg width="18" height="18" viewBox="0 0 18 18" fill="none" xmlns="http://www.w3.org/2000/svg">
<path d="M8.99999 3.74979C9.00088 3.44982 8.94177 3.15269 8.82614 2.87589C8.71051 2.5991 8.5407 2.34821 8.3267 2.138C8.11269 1.92779 7.85881 1.7625 7.57999 1.65184C7.30116 1.54119 7.00303 1.4874 6.70312 1.49365C6.4032 1.4999 6.10757 1.56606 5.8336 1.68824C5.55963 1.81042 5.31286 1.98615 5.1078 2.2051C4.90274 2.42404 4.74353 2.68178 4.63953 2.96316C4.53554 3.24453 4.48886 3.54386 4.50224 3.84354C4.0614 3.9569 3.65212 4.16908 3.30542 4.46403C2.95871 4.75897 2.68367 5.12895 2.50113 5.54593C2.31858 5.96291 2.23331 6.41596 2.25179 6.87078C2.27026 7.32559 2.39198 7.77024 2.60774 8.17104C2.22838 8.47924 1.93006 8.87546 1.73875 9.32524C1.54743 9.77502 1.46891 10.2647 1.51002 10.7518C1.55112 11.2388 1.71061 11.7085 1.9746 12.1198C2.23859 12.5312 2.59909 12.8718 3.02474 13.112C2.97218 13.5187 3.00355 13.9319 3.11691 14.3259C3.23027 14.72 3.42322 15.0867 3.68383 15.4033C3.94445 15.7198 4.2672 15.9796 4.63216 16.1666C4.99712 16.3536 5.39653 16.4637 5.80573 16.4903C6.21493 16.5168 6.62523 16.4592 7.01128 16.321C7.39734 16.1828 7.75097 15.9669 8.05031 15.6866C8.34966 15.4064 8.58838 15.0677 8.75172 14.6916C8.91506 14.3155 8.99956 13.9099 8.99999 13.4998V3.74979Z" stroke="#E74D3C" stroke-width="1.5" stroke-linecap="round" stroke-linejoin="round"/>
<path d="M9.00001 3.74979C8.99913 3.44982 9.05824 3.15269 9.17386 2.87589C9.28949 2.5991 9.4593 2.34821 9.67331 2.138C9.88731 1.92779 10.1412 1.7625 10.42 1.65184C10.6988 1.54119 10.997 1.4874 11.2969 1.49365C11.5968 1.4999 11.8924 1.56606 12.1664 1.68824C12.4404 1.81042 12.6871 1.98615 12.8922 2.2051C13.0973 2.42404 13.2565 2.68178 13.3605 2.96316C13.4645 3.24453 13.5111 3.54386 13.4978 3.84354C13.9386 3.9569 14.3479 4.16908 14.6946 4.46403C15.0413 4.75897 15.3163 5.12895 15.4989 5.54593C15.6814 5.96291 15.7667 6.41596 15.7482 6.87078C15.7297 7.32559 15.608 7.77024 15.3923 8.17104C15.7716 8.47924 16.0699 8.87546 16.2613 9.32524C16.4526 9.77502 16.5311 10.2647 16.49 10.7518C16.4489 11.2388 16.2894 11.7085 16.0254 12.1198C15.7614 12.5312 15.4009 12.8718 14.9753 13.112C15.0278 13.5187 14.9965 13.9319 14.8831 14.3259C14.7697 14.72 14.5768 15.0867 14.3162 15.4033C14.0556 15.7198 13.7328 15.9796 13.3678 16.1666C13.0029 16.3536 12.6035 16.4637 12.1943 16.4903C11.7851 16.5168 11.3748 16.4592 10.9887 16.321C10.6027 16.1828 10.249 15.9669 9.94969 15.6866C9.65034 15.4064 9.41163 15.0677 9.24829 14.6916C9.08495 14.3155 9.00045 13.9099 9.00001 13.4998V3.74979Z" stroke="#E74D3C" stroke-width="1.5" stroke-linecap="round" stroke-linejoin="round"/>
<path d="M11.25 9.75C10.6203 9.52849 10.0705 9.12525 9.66999 8.59125C9.2695 8.05726 9.03634 7.4165 9 6.75C8.96366 7.4165 8.7305 8.05726 8.33001 8.59125C7.92951 9.12525 7.37967 9.52849 6.75 9.75" stroke="#E74D3C" stroke-width="1.5" stroke-linecap="round" stroke-linejoin="round"/>
<path d="M13.1992 4.875C13.3807 4.56044 13.4834 4.20661 13.4985 3.84375" stroke="#E74D3C" stroke-width="1.5" stroke-linecap="round" stroke-linejoin="round"/>
<path d="M4.5022 3.84375C4.51703 4.20655 4.61944 4.56037 4.8007 4.875" stroke="#E74D3C" stroke-width="1.5" stroke-linecap="round" stroke-linejoin="round"/>
<path d="M2.60779 8.172C2.74499 8.06025 2.89181 7.96087 3.04654 7.875" stroke="#E74D3C" stroke-width="1.5" stroke-linecap="round" stroke-linejoin="round"/>
<path d="M14.9535 7.875C15.1082 7.96087 15.255 8.06025 15.3922 8.172" stroke="#E74D3C" stroke-width="1.5" stroke-linecap="round" stroke-linejoin="round"/>
<path d="M4.50003 13.4998C3.98315 13.5 3.47498 13.3667 3.02478 13.1128" stroke="#E74D3C" stroke-width="1.5" stroke-linecap="round" stroke-linejoin="round"/>
<path d="M14.9752 13.1128C14.525 13.3667 14.0169 13.5 13.5 13.4998" stroke="#E74D3C" stroke-width="1.5" stroke-linecap="round" stroke-linejoin="round"/>
</svg>
