<svg width="12" height="12" viewBox="0 0 12 12" fill="none" xmlns="http://www.w3.org/2000/svg">
<path d="M5.45999 11.52C5.34999 10.87 5.05999 10.17 4.58999 9.42001C4.11999 8.66001 3.44999 7.95501 2.57999 7.30501C1.71999 6.65501 0.859985 6.24001 -1.46069e-05 6.06001V5.43001C0.849985 5.23001 1.66499 4.86001 2.44499 4.32001C3.23499 3.77001 3.89499 3.11001 4.42499 2.34001C4.96499 1.55001 5.30999 0.770014 5.45999 1.44839e-05H6.08999C6.17999 0.500014 6.35999 1.01501 6.62999 1.54501C6.89999 2.06501 7.24499 2.56501 7.66499 3.04501C8.09499 3.51501 8.57499 3.94001 9.10499 4.32001C9.89499 4.88001 10.7 5.25001 11.52 5.43001V6.06001C10.97 6.17001 10.4 6.39501 9.80999 6.73501C9.22999 7.07501 8.68999 7.48001 8.18999 7.95001C7.68999 8.41001 7.27999 8.89501 6.95999 9.40501C6.48999 10.155 6.19999 10.86 6.08999 11.52H5.45999Z" fill="#E74D3C"/>
</svg>
