<svg width="18" height="18" viewBox="0 0 18 18" fill="none" xmlns="http://www.w3.org/2000/svg">
<path d="M1.54651 9.26103C1.48401 9.09264 1.48401 8.90741 1.54651 8.73903C2.15529 7.26292 3.18865 6.00081 4.51559 5.1127C5.84253 4.22459 7.4033 3.75049 9.00001 3.75049C10.5967 3.75049 12.1575 4.22459 13.4844 5.1127C14.8114 6.00081 15.8447 7.26292 16.4535 8.73903C16.516 8.90741 16.516 9.09264 16.4535 9.26103C15.8447 10.7371 14.8114 11.9992 13.4844 12.8874C12.1575 13.7755 10.5967 14.2496 9.00001 14.2496C7.4033 14.2496 5.84253 13.7755 4.51559 12.8874C3.18865 11.9992 2.15529 10.7371 1.54651 9.26103Z" stroke="#E74D3C" stroke-width="1.5" stroke-linecap="round" stroke-linejoin="round"/>
<path d="M9 11.25C10.2426 11.25 11.25 10.2426 11.25 9C11.25 7.75736 10.2426 6.75 9 6.75C7.75736 6.75 6.75 7.75736 6.75 9C6.75 10.2426 7.75736 11.25 9 11.25Z" stroke="#E74D3C" stroke-width="1.5" stroke-linecap="round" stroke-linejoin="round"/>
</svg>
