<svg width="39" height="39" viewBox="0 0 39 39" fill="none" xmlns="http://www.w3.org/2000/svg">
<rect width="39" height="39" rx="9" fill="#FAECEB"/>
<path d="M13.875 20.75H15.75C16.0815 20.75 16.3995 20.8817 16.6339 21.1161C16.8683 21.3505 17 21.6685 17 22V23.875C17 24.2065 16.8683 24.5245 16.6339 24.7589C16.3995 24.9933 16.0815 25.125 15.75 25.125H15.125C14.7935 25.125 14.4755 24.9933 14.2411 24.7589C14.0067 24.5245 13.875 24.2065 13.875 23.875V19.5C13.875 18.0082 14.4676 16.5774 15.5225 15.5225C16.5774 14.4676 18.0082 13.875 19.5 13.875C20.9918 13.875 22.4226 14.4676 23.4775 15.5225C24.5324 16.5774 25.125 18.0082 25.125 19.5V23.875C25.125 24.2065 24.9933 24.5245 24.7589 24.7589C24.5245 24.9933 24.2065 25.125 23.875 25.125H23.25C22.9185 25.125 22.6005 24.9933 22.3661 24.7589C22.1317 24.5245 22 24.2065 22 23.875V22C22 21.6685 22.1317 21.3505 22.3661 21.1161C22.6005 20.8817 22.9185 20.75 23.25 20.75H25.125" stroke="#E74D3C" stroke-width="1.25" stroke-linecap="round" stroke-linejoin="round"/>
</svg>
