<svg width="18" height="18" viewBox="0 0 18 18" fill="none" xmlns="http://www.w3.org/2000/svg">
<g clip-path="url(#clip0_159_50)">
<path d="M7.45271 11.6252C7.38575 11.3656 7.25046 11.1288 7.06092 10.9392C6.87138 10.7497 6.63451 10.6144 6.37495 10.5474L1.77371 9.36094C1.6952 9.33866 1.62611 9.29138 1.57691 9.22627C1.52772 9.16117 1.5011 9.08179 1.5011 9.00019C1.5011 8.91858 1.52772 8.83921 1.57691 8.7741C1.62611 8.709 1.6952 8.66172 1.77371 8.63944L6.37495 7.45219C6.63442 7.38529 6.87122 7.25012 7.06076 7.06072C7.25029 6.87132 7.38563 6.6346 7.45271 6.37519L8.6392 1.77394C8.66126 1.69513 8.70849 1.62569 8.7737 1.57623C8.8389 1.52677 8.91849 1.5 9.00033 1.5C9.08217 1.5 9.16176 1.52677 9.22696 1.57623C9.29217 1.62569 9.3394 1.69513 9.36146 1.77394L10.5472 6.37519C10.6142 6.63474 10.7495 6.87161 10.939 7.06115C11.1285 7.25069 11.3654 7.38598 11.625 7.45294L16.2262 8.63869C16.3053 8.66051 16.3751 8.70769 16.4248 8.77299C16.4746 8.83829 16.5015 8.91811 16.5015 9.00019C16.5015 9.08227 16.4746 9.16208 16.4248 9.22738C16.3751 9.29268 16.3053 9.33986 16.2262 9.36169L11.625 10.5474C11.3654 10.6144 11.1285 10.7497 10.939 10.9392C10.7495 11.1288 10.6142 11.3656 10.5472 11.6252L9.3607 16.2264C9.33865 16.3052 9.29142 16.3747 9.22621 16.4241C9.16101 16.4736 9.08142 16.5004 8.99958 16.5004C8.91774 16.5004 8.83815 16.4736 8.77295 16.4241C8.70774 16.3747 8.66051 16.3052 8.63845 16.2264L7.45271 11.6252Z" stroke="#E74D3C" stroke-width="1.5" stroke-linecap="round" stroke-linejoin="round"/>
<path d="M15 2.25V5.25" stroke="#E74D3C" stroke-width="1.5" stroke-linecap="round" stroke-linejoin="round"/>
<path d="M16.5 3.75H13.5" stroke="#E74D3C" stroke-width="1.5" stroke-linecap="round" stroke-linejoin="round"/>
<path d="M3 12.75V14.25" stroke="#E74D3C" stroke-width="1.5" stroke-linecap="round" stroke-linejoin="round"/>
<path d="M3.75 13.5H2.25" stroke="#E74D3C" stroke-width="1.5" stroke-linecap="round" stroke-linejoin="round"/>
</g>
<defs>
<clipPath id="clip0_159_50">
<rect width="18" height="18" fill="white"/>
</clipPath>
</defs>
</svg>
